<svg width="48" height="48" viewBox="0 0 48 48" fill="none" xmlns="http://www.w3.org/2000/svg">
<rect width="48" height="48" rx="6" fill="#6948BA"/>
<path fill-rule="evenodd" clip-rule="evenodd" d="M13.356 31.788C13.5636 31.9964 13.7227 32.248 13.8219 32.5249C13.9211 32.8018 13.958 33.0972 13.93 33.39C13.7894 34.7452 13.523 36.0843 13.134 37.39C15.924 36.744 17.628 35.996 18.402 35.604C18.841 35.3816 19.3466 35.329 19.822 35.456C21.1849 35.8193 22.5895 36.0022 24 36C31.992 36 38 30.386 38 24C38 17.616 31.992 12 24 12C16.008 12 10 17.616 10 24C10 26.936 11.234 29.66 13.356 31.788ZM12.37 39.598C11.8961 39.6919 11.4207 39.778 10.944 39.856C10.544 39.92 10.24 39.504 10.398 39.132C10.5756 38.7132 10.7384 38.2883 10.886 37.858L10.892 37.838C11.388 36.398 11.792 34.742 11.94 33.2C9.486 30.74 8 27.52 8 24C8 16.268 15.164 10 24 10C32.836 10 40 16.268 40 24C40 31.732 32.836 38 24 38C22.4153 38.0021 20.8372 37.7964 19.306 37.388C18.266 37.914 16.028 38.872 12.37 39.598Z" fill="white"/>
<path d="M18 24C18 24.5304 17.7893 25.0391 17.4142 25.4142C17.0391 25.7893 16.5304 26 16 26C15.4696 26 14.9609 25.7893 14.5858 25.4142C14.2107 25.0391 14 24.5304 14 24C14 23.4696 14.2107 22.9609 14.5858 22.5858C14.9609 22.2107 15.4696 22 16 22C16.5304 22 17.0391 22.2107 17.4142 22.5858C17.7893 22.9609 18 23.4696 18 24ZM26 24C26 24.5304 25.7893 25.0391 25.4142 25.4142C25.0391 25.7893 24.5304 26 24 26C23.4696 26 22.9609 25.7893 22.5858 25.4142C22.2107 25.0391 22 24.5304 22 24C22 23.4696 22.2107 22.9609 22.5858 22.5858C22.9609 22.2107 23.4696 22 24 22C24.5304 22 25.0391 22.2107 25.4142 22.5858C25.7893 22.9609 26 23.4696 26 24ZM34 24C34 24.5304 33.7893 25.0391 33.4142 25.4142C33.0391 25.7893 32.5304 26 32 26C31.4696 26 30.9609 25.7893 30.5858 25.4142C30.2107 25.0391 30 24.5304 30 24C30 23.4696 30.2107 22.9609 30.5858 22.5858C30.9609 22.2107 31.4696 22 32 22C32.5304 22 33.0391 22.2107 33.4142 22.5858C33.7893 22.9609 34 23.4696 34 24Z" fill="white"/>
</svg>
