<svg width="17" height="16" viewBox="0 0 17 16" fill="none" xmlns="http://www.w3.org/2000/svg">
<g clip-path="url(#clip0_775_644)">
<path fill-rule="evenodd" clip-rule="evenodd" d="M10.4595 10.4422C10.5524 10.3492 10.6627 10.2755 10.7841 10.2251C10.9055 10.1748 11.0356 10.1489 11.167 10.1489C11.2984 10.1489 11.4286 10.1748 11.55 10.2251C11.6714 10.2755 11.7817 10.3492 11.8745 10.4422L15.7245 14.2922C15.9122 14.4797 16.0176 14.7341 16.0177 14.9993C16.0178 15.2646 15.9125 15.5191 15.725 15.7067C15.5375 15.8943 15.2831 15.9998 15.0179 15.9999C14.7526 16 14.4982 15.8947 14.3105 15.7072L10.4605 11.8572C10.3675 11.7643 10.2938 11.654 10.2435 11.5326C10.1931 11.4112 10.1672 11.2811 10.1672 11.1497C10.1672 11.0183 10.1931 10.8882 10.2435 10.7668C10.2938 10.6454 10.3675 10.5351 10.4605 10.4422H10.4595Z" fill="#A9B1BF"/>
<path fill-rule="evenodd" clip-rule="evenodd" d="M6.5188 12C7.24107 12 7.95627 11.8577 8.62356 11.5813C9.29085 11.3049 9.89716 10.8998 10.4079 10.3891C10.9186 9.87837 11.3237 9.27205 11.6001 8.60476C11.8765 7.93747 12.0188 7.22227 12.0188 6.5C12.0188 5.77773 11.8765 5.06253 11.6001 4.39524C11.3237 3.72795 10.9186 3.12163 10.4079 2.61091C9.89716 2.10019 9.29085 1.69506 8.62356 1.41866C7.95627 1.14226 7.24107 1 6.5188 1C5.06011 1 3.66116 1.57946 2.62971 2.61091C1.59826 3.64236 1.0188 5.04131 1.0188 6.5C1.0188 7.95869 1.59826 9.35764 2.62971 10.3891C3.66116 11.4205 5.06011 12 6.5188 12ZM13.0188 6.5C13.0188 8.22391 12.334 9.87721 11.115 11.0962C9.89601 12.3152 8.24271 13 6.5188 13C4.79489 13 3.14159 12.3152 1.9226 11.0962C0.703618 9.87721 0.0187988 8.22391 0.0187988 6.5C0.0187988 4.77609 0.703618 3.12279 1.9226 1.90381C3.14159 0.684819 4.79489 0 6.5188 0C8.24271 0 9.89601 0.684819 11.115 1.90381C12.334 3.12279 13.0188 4.77609 13.0188 6.5Z" fill="#A9B1BF"/>
</g>
<defs>
<clipPath id="clip0_775_644">
<rect width="16" height="16" fill="white" transform="translate(0.0187988)"/>
</clipPath>
</defs>
</svg>
