<svg width="163" height="32" viewBox="0 0 163 32" fill="none" xmlns="http://www.w3.org/2000/svg">
<path d="M9.62391 1.57958C9.82126 1.42908 9.9955 1.33949 10.1263 1.20703C11.8641 -0.552458 13.4119 -0.272512 15.191 1.29888C17.8612 3.65742 20.6501 5.88118 23.3736 8.17991C24.3032 8.96449 24.9496 9.82969 24.8991 11.2178C24.7876 14.2826 24.8318 17.3548 24.8796 20.423C24.9003 21.7492 24.7344 22.8601 23.5172 23.7123C22.1436 24.6741 20.9018 25.824 19.4699 27.0011C19.4536 26.6506 19.4391 26.476 19.4383 26.3015C19.4168 21.905 19.3778 17.5084 19.3909 13.112C19.3939 12.1149 19.0153 11.4432 18.2531 10.8259C16.528 9.42845 14.856 7.9644 13.1863 6.50017C12.6879 6.06311 12.3711 6.04359 11.8358 6.52381C10.112 8.07038 8.31853 9.53957 6.54346 11.0285C5.82575 11.6306 5.36362 12.2865 5.43737 13.3196C5.56095 15.0508 5.51153 16.794 5.62286 18.5265C5.65058 18.9579 5.91121 19.4897 6.2401 19.7687C9.43701 22.4807 12.671 25.1491 15.8952 27.829C16.2634 28.135 16.6365 28.4353 17.1467 28.8521C15.9269 29.8174 14.8617 30.8438 13.6241 31.5807C12.6702 32.1487 11.5708 31.8518 10.6836 31.1378C8.032 29.0039 5.38139 26.8686 2.75237 24.7072C1.95395 24.0507 1.17211 23.3556 0.492508 22.5818C0.196152 22.2443 0.0557625 21.6653 0.05043 21.1937C0.0135621 17.9334 0.0920595 14.6708 0.00173781 11.4126C-0.0357524 10.0602 0.535725 9.16534 1.48568 8.37292C3.51969 6.6762 5.55008 4.97514 7.58314 3.27727C8.24709 2.72278 8.91469 2.17267 9.62391 1.57958Z" fill="white"/>
<path d="M44.3889 10.123C46.2069 10.123 47.6649 10.663 48.7629 11.743C49.8789 12.823 50.4369 14.452 50.4369 16.63V25H45.3069V17.467C45.3069 15.469 44.5059 14.47 42.9039 14.47C42.0219 14.47 41.3109 14.758 40.7709 15.334C40.2489 15.91 39.9879 16.774 39.9879 17.926V25H34.8579V4.966H39.9879V11.716C40.5459 11.194 41.2029 10.798 41.9589 10.528C42.7149 10.258 43.5249 10.123 44.3889 10.123ZM59.3547 10.123C61.7847 10.123 63.6387 10.681 64.9167 11.797C66.1947 12.895 66.8337 14.587 66.8337 16.873V25H62.0547V23.11C61.3167 24.532 59.8767 25.243 57.7347 25.243C56.6007 25.243 55.6197 25.045 54.7917 24.649C53.9637 24.253 53.3337 23.722 52.9017 23.056C52.4877 22.372 52.2807 21.598 52.2807 20.734C52.2807 19.348 52.8117 18.277 53.8737 17.521C54.9357 16.747 56.5737 16.36 58.7877 16.36H61.7037C61.6137 14.812 60.5787 14.038 58.5987 14.038C57.8967 14.038 57.1857 14.155 56.4657 14.389C55.7457 14.605 55.1337 14.911 54.6297 15.307L52.9017 11.824C53.7117 11.284 54.6927 10.87 55.8447 10.582C57.0147 10.276 58.1847 10.123 59.3547 10.123ZM59.1657 22.003C59.7597 22.003 60.2817 21.859 60.7317 21.571C61.1817 21.283 61.5057 20.86 61.7037 20.302V19.033H59.4897C57.9957 19.033 57.2487 19.528 57.2487 20.518C57.2487 20.968 57.4197 21.328 57.7617 21.598C58.1037 21.868 58.5717 22.003 59.1657 22.003ZM84.9218 10.366V25H80.0348V23.434C79.4948 24.028 78.8468 24.478 78.0908 24.784C77.3348 25.09 76.5338 25.243 75.6878 25.243C73.7978 25.243 72.2858 24.685 71.1518 23.569C70.0358 22.453 69.4778 20.779 69.4778 18.547V10.366H74.6078V17.71C74.6078 18.808 74.8148 19.609 75.2288 20.113C75.6428 20.617 76.2458 20.869 77.0378 20.869C77.8478 20.869 78.5048 20.59 79.0088 20.032C79.5308 19.456 79.7918 18.583 79.7918 17.413V10.366H84.9218ZM93.0052 25.243C91.7812 25.243 90.5752 25.108 89.3872 24.838C88.1992 24.55 87.2452 24.181 86.5252 23.731L88.0642 20.221C88.7302 20.635 89.5222 20.968 90.4402 21.22C91.3582 21.454 92.2672 21.571 93.1672 21.571C93.9952 21.571 94.5802 21.49 94.9222 21.328C95.2822 21.148 95.4622 20.896 95.4622 20.572C95.4622 20.248 95.2462 20.023 94.8142 19.897C94.4002 19.753 93.7342 19.618 92.8162 19.492C91.6462 19.348 90.6472 19.159 89.8192 18.925C89.0092 18.691 88.3072 18.259 87.7132 17.629C87.1192 16.999 86.8222 16.117 86.8222 14.983C86.8222 14.047 87.1012 13.219 87.6592 12.499C88.2172 11.761 89.0272 11.185 90.0892 10.771C91.1692 10.339 92.4562 10.123 93.9502 10.123C95.0122 10.123 96.0652 10.231 97.1092 10.447C98.1532 10.663 99.0262 10.969 99.7282 11.365L98.1892 14.848C96.8932 14.128 95.4892 13.768 93.9772 13.768C93.1672 13.768 92.5732 13.867 92.1952 14.065C91.8172 14.245 91.6282 14.488 91.6282 14.794C91.6282 15.136 91.8352 15.379 92.2492 15.523C92.6632 15.649 93.3472 15.784 94.3012 15.928C95.5072 16.108 96.5062 16.315 97.2982 16.549C98.0902 16.783 98.7742 17.215 99.3502 17.845C99.9442 18.457 100.241 19.321 100.241 20.437C100.241 21.355 99.9622 22.183 99.4042 22.921C98.8462 23.641 98.0182 24.208 96.9202 24.622C95.8402 25.036 94.5352 25.243 93.0052 25.243ZM101.912 4.966H107.042V25H101.912V4.966ZM117.18 25.243C115.614 25.243 114.201 24.919 112.941 24.271C111.681 23.623 110.691 22.723 109.971 21.571C109.269 20.419 108.918 19.114 108.918 17.656C108.918 16.216 109.269 14.92 109.971 13.768C110.691 12.616 111.672 11.725 112.914 11.095C114.174 10.447 115.596 10.123 117.18 10.123C118.764 10.123 120.186 10.447 121.446 11.095C122.706 11.725 123.687 12.616 124.389 13.768C125.091 14.902 125.442 16.198 125.442 17.656C125.442 19.114 125.091 20.419 124.389 21.571C123.687 22.723 122.706 23.623 121.446 24.271C120.186 24.919 118.764 25.243 117.18 25.243ZM117.18 21.166C118.08 21.166 118.818 20.86 119.394 20.248C119.97 19.618 120.258 18.754 120.258 17.656C120.258 16.576 119.97 15.73 119.394 15.118C118.818 14.506 118.08 14.2 117.18 14.2C116.28 14.2 115.542 14.506 114.966 15.118C114.39 15.73 114.102 16.576 114.102 17.656C114.102 18.754 114.39 19.618 114.966 20.248C115.542 20.86 116.28 21.166 117.18 21.166ZM134.622 25.243C133.056 25.243 131.643 24.919 130.383 24.271C129.123 23.623 128.133 22.723 127.413 21.571C126.711 20.419 126.36 19.114 126.36 17.656C126.36 16.216 126.711 14.92 127.413 13.768C128.133 12.616 129.114 11.725 130.356 11.095C131.616 10.447 133.038 10.123 134.622 10.123C136.206 10.123 137.628 10.447 138.888 11.095C140.148 11.725 141.129 12.616 141.831 13.768C142.533 14.902 142.884 16.198 142.884 17.656C142.884 19.114 142.533 20.419 141.831 21.571C141.129 22.723 140.148 23.623 138.888 24.271C137.628 24.919 136.206 25.243 134.622 25.243ZM134.622 21.166C135.522 21.166 136.26 20.86 136.836 20.248C137.412 19.618 137.7 18.754 137.7 17.656C137.7 16.576 137.412 15.73 136.836 15.118C136.26 14.506 135.522 14.2 134.622 14.2C133.722 14.2 132.984 14.506 132.408 15.118C131.832 15.73 131.544 16.576 131.544 17.656C131.544 18.754 131.832 19.618 132.408 20.248C132.984 20.86 133.722 21.166 134.622 21.166ZM153.928 10.123C155.26 10.123 156.466 10.438 157.546 11.068C158.644 11.68 159.508 12.562 160.138 13.714C160.786 14.848 161.11 16.171 161.11 17.683C161.11 19.195 160.786 20.527 160.138 21.679C159.508 22.813 158.644 23.695 157.546 24.325C156.466 24.937 155.26 25.243 153.928 25.243C152.218 25.243 150.859 24.73 149.851 23.704V30.238H144.721V10.366H149.608V11.824C150.562 10.69 152.002 10.123 153.928 10.123ZM152.848 21.166C153.748 21.166 154.486 20.86 155.062 20.248C155.638 19.618 155.926 18.763 155.926 17.683C155.926 16.603 155.638 15.757 155.062 15.145C154.486 14.515 153.748 14.2 152.848 14.2C151.948 14.2 151.21 14.515 150.634 15.145C150.058 15.757 149.77 16.603 149.77 17.683C149.77 18.763 150.058 19.618 150.634 20.248C151.21 20.86 151.948 21.166 152.848 21.166Z" fill="white"/>
</svg>
