<svg width="32" height="32" viewBox="0 0 32 32" fill="none" xmlns="http://www.w3.org/2000/svg">
<g clip-path="url(#clip0_604_4932)">
<path d="M16 32C17.0609 32 18.0783 31.5786 18.8284 30.8284C19.5786 30.0783 20 29.0609 20 28H12C12 29.0609 12.4214 30.0783 13.1716 30.8284C13.9217 31.5786 14.9391 32 16 32Z" fill="white"/>
<path fill-rule="evenodd" clip-rule="evenodd" d="M16 3.8358L14.406 4.1578C12.5979 4.5262 10.9727 5.508 9.8053 6.93704C8.63795 8.36608 8.0002 10.1546 8 11.9998C8 13.2558 7.732 16.3938 7.082 19.4838C6.762 21.0178 6.33 22.6158 5.756 23.9998H26.244C25.67 22.6158 25.24 21.0198 24.918 19.4838C24.268 16.3938 24 13.2558 24 11.9998C23.9993 10.1549 23.3614 8.36689 22.1941 6.93827C21.0267 5.50964 19.4017 4.52813 17.594 4.1598L16 3.8338V3.8358ZM28.44 23.9998C28.886 24.8938 29.402 25.6018 30 25.9998H2C2.598 25.6018 3.114 24.8938 3.56 23.9998C5.36 20.3998 6 13.7598 6 11.9998C6 7.1598 9.44 3.1198 14.01 2.1978C13.9821 1.9197 14.0128 1.63885 14.1001 1.37334C14.1874 1.10784 14.3293 0.863576 14.5168 0.656313C14.7043 0.44905 14.9332 0.283386 15.1887 0.170006C15.4441 0.0566258 15.7205 -0.00195312 16 -0.00195312C16.2795 -0.00195313 16.5559 0.0566258 16.8113 0.170006C17.0668 0.283386 17.2957 0.44905 17.4832 0.656313C17.6707 0.863576 17.8126 1.10784 17.8999 1.37334C17.9872 1.63885 18.0179 1.9197 17.99 2.1978C20.2506 2.6576 22.2828 3.88452 23.7425 5.6708C25.2022 7.45708 25.9997 9.69295 26 11.9998C26 13.7598 26.64 20.3998 28.44 23.9998Z" fill="white"/>
</g>
<defs>
<clipPath id="clip0_604_4932">
<rect width="32" height="32" fill="white"/>
</clipPath>
</defs>
</svg>
